<svg width="649" height="565" viewBox="0 0 649 565" fill="none" xmlns="http://www.w3.org/2000/svg">
<g id="undraw_Popular_re_mlfe (2) 1" clip-path="url(#clip0)">
<path id="Vector" d="M458.195 564.56H443.436C441.712 564.558 440.06 563.873 438.841 562.654C437.623 561.436 436.937 559.783 436.936 558.06V435.046C436.937 433.323 437.623 431.671 438.841 430.452C440.06 429.233 441.712 428.548 443.436 428.546H458.195C459.919 428.548 461.571 429.233 462.789 430.452C464.008 431.671 464.693 433.323 464.695 435.046V558.06C464.693 559.783 464.008 561.436 462.789 562.654C461.571 563.873 459.919 564.558 458.195 564.56Z" fill="#0F0F0F"/>
<path id="Vector_2" d="M429.003 564.56H414.243C412.52 564.558 410.868 563.873 409.649 562.654C408.431 561.436 407.745 559.783 407.743 558.06V435.046C407.745 433.323 408.431 431.671 409.649 430.452C410.868 429.233 412.52 428.548 414.243 428.546H429.003C430.726 428.548 432.378 429.233 433.597 430.452C434.815 431.671 435.501 433.323 435.503 435.046V558.06C435.501 559.783 434.815 561.436 433.597 562.654C432.378 563.873 430.726 564.558 429.003 564.56Z" fill="#0F0F0F"/>
<path id="Vector_3" d="M390.078 444.583C390.078 444.583 384.502 494.727 440.797 493.024C497.093 491.321 475.19 442.049 475.19 442.049C475.19 442.049 463.426 432.804 433.687 441.746C403.949 450.687 390.078 444.583 390.078 444.583Z" fill="#CCCCCC"/>
<path id="Vector_4" d="M414.27 358.746C411.552 358.748 408.895 357.947 406.631 356.445L310.203 292.625C308.767 291.672 307.767 290.188 307.424 288.5C307.08 286.811 307.42 285.055 308.37 283.617L316.516 271.309C316.987 270.597 317.594 269.985 318.301 269.508C319.009 269.031 319.804 268.697 320.64 268.527C321.477 268.357 322.338 268.353 323.176 268.516C324.014 268.679 324.812 269.005 325.524 269.476L421.951 333.296C424.441 334.943 426.333 337.348 427.347 340.155C428.361 342.963 428.442 346.022 427.58 348.879C426.718 351.737 424.957 354.24 422.559 356.017C420.161 357.795 417.254 358.752 414.27 358.746Z" fill="#0F0F0F"/>
<path id="Vector_5" d="M431.778 300.167C459.945 300.167 482.778 277.334 482.778 249.167C482.778 221.001 459.945 198.167 431.778 198.167C403.612 198.167 380.778 221.001 380.778 249.167C380.778 277.334 403.612 300.167 431.778 300.167Z" fill="#0F0F0F"/>
<path id="Vector_6" d="M437.741 270.576C434.435 270.485 430.32 270.37 427.151 268.054C426.207 267.337 425.431 266.421 424.879 265.372C424.326 264.323 424.009 263.166 423.951 261.982C423.893 261.14 424.031 260.296 424.354 259.517C424.677 258.737 425.175 258.043 425.811 257.488C427.467 256.089 429.884 255.761 432.489 256.527L429.79 236.801L431.771 236.53L434.945 259.72L433.29 258.961C431.372 258.081 428.738 257.633 427.102 259.016C426.7 259.377 426.387 259.827 426.187 260.329C425.987 260.831 425.906 261.373 425.949 261.911C425.998 262.793 426.236 263.653 426.646 264.435C427.057 265.216 427.632 265.9 428.331 266.439C430.797 268.241 434.077 268.473 437.796 268.577L437.741 270.576Z" fill="#2F2E41"/>
<path id="Vector_7" d="M419.991 238.503H409.219V240.503H419.991V238.503Z" fill="#2F2E41"/>
<path id="Vector_8" d="M453.991 238.503H443.219V240.503H453.991V238.503Z" fill="#2F2E41"/>
<path id="Vector_9" d="M483.295 455.148C483.295 455.148 487.698 305.433 426.051 315.708C364.403 325.982 390.09 470.56 390.09 470.56C390.09 470.56 403.3 496.98 435.591 467.624C467.883 438.268 483.295 455.148 483.295 455.148Z" fill="#2F2E41"/>
<path id="Vector_10" d="M322.066 435.405C320.811 435.406 319.583 435.044 318.529 434.363C317.475 433.682 316.64 432.71 316.125 431.566L310.084 418.099C309.735 417.32 309.542 416.48 309.517 415.627C309.493 414.774 309.636 413.924 309.94 413.126C310.244 412.329 310.701 411.599 311.287 410.978C311.873 410.357 312.576 409.858 313.354 409.508L418.859 362.179C420.522 361.433 422.316 361.022 424.138 360.969C425.96 360.916 427.774 361.222 429.477 361.871C431.181 362.519 432.74 363.497 434.066 364.748C435.391 365.999 436.458 367.498 437.204 369.161C437.95 370.824 438.361 372.618 438.414 374.44C438.466 376.262 438.16 378.076 437.511 379.78C436.863 381.483 435.885 383.042 434.635 384.368C433.384 385.694 431.884 386.76 430.221 387.506L324.716 434.836C323.883 435.211 322.98 435.405 322.066 435.405Z" fill="#0F0F0F"/>
<path id="Vector_11" d="M460.544 206.091C450.621 199.353 438.096 203.93 428.454 208.739C419.09 213.408 408.537 219.35 397.942 214.852C393.804 213.095 390.44 209.659 389.856 205.062C389.159 199.585 392.471 194.458 396.154 190.735C400.157 186.904 404.821 183.831 409.92 181.663C414.918 179.414 420.183 177.813 425.588 176.899C436.293 175.049 447.285 175.784 457.649 179.042C468.012 182.3 477.448 187.988 485.169 195.63C492.638 203.248 498.409 212.362 502.102 222.371C505.794 232.38 507.325 243.058 506.594 253.702C505.751 265.047 502.128 276.616 494.858 285.522C488.038 293.878 477.825 299.753 466.925 300.243C464.254 300.368 461.579 300.151 458.963 299.597C457.08 299.195 456.275 302.086 458.165 302.489C469.518 304.91 481.278 301.313 490.282 294.231C499.761 286.775 505.577 275.489 508.126 263.859C513.006 241.604 506.893 217.654 492.885 199.837C485.967 190.963 477.007 183.892 466.767 179.228C456.192 174.506 444.639 172.386 433.076 173.045C421.544 173.625 410.357 177.169 400.596 183.337C391.866 188.979 382.026 200.94 389.146 211.522C391.809 215.479 396.229 217.89 400.818 218.88C406.085 219.905 411.533 219.43 416.542 217.511C427.949 213.483 438.498 204.483 451.265 205.847C454.048 206.136 456.716 207.109 459.03 208.681C460.631 209.769 462.134 207.17 460.544 206.091L460.544 206.091Z" fill="#2F2E41"/>
<path id="Vector_12" d="M286.408 389.272C285.828 389.271 285.255 389.14 284.732 388.889C284.209 388.639 283.748 388.274 283.384 387.823L266.799 367.551H24.3633C21.9772 367.548 19.6896 366.599 18.0023 364.912C16.3151 363.225 15.366 360.937 15.3633 358.551V214.551C15.366 212.165 16.3151 209.877 18.0023 208.19C19.6896 206.503 21.9772 205.554 24.3633 205.551H281.363C283.749 205.554 286.037 206.503 287.724 208.19C289.411 209.877 290.361 212.165 290.363 214.551V385.331C290.369 386.144 290.121 386.939 289.653 387.603C289.184 388.268 288.52 388.769 287.752 389.036C287.321 389.191 286.866 389.271 286.408 389.272ZM24.3633 207.551C22.5074 207.553 20.7281 208.291 19.4158 209.603C18.1035 210.916 17.3654 212.695 17.3633 214.551V358.551C17.3654 360.407 18.1035 362.186 19.4158 363.498C20.7281 364.811 22.5074 365.549 24.3633 365.551H267.746L284.932 386.556C285.185 386.865 285.527 387.088 285.911 387.195C286.296 387.302 286.704 387.287 287.079 387.153C287.455 387.019 287.78 386.772 288.01 386.446C288.24 386.119 288.363 385.73 288.363 385.331V214.551C288.361 212.695 287.623 210.916 286.311 209.603C284.998 208.291 283.219 207.553 281.363 207.551H24.3633Z" fill="#3F3D56"/>
<path id="Vector_13" d="M252.363 253.551H53.3633C52.0372 253.551 50.7654 253.024 49.8277 252.086C48.89 251.149 48.3633 249.877 48.3633 248.551C48.3633 247.225 48.89 245.953 49.8277 245.015C50.7654 244.078 52.0372 243.551 53.3633 243.551H252.363C253.689 243.551 254.961 244.078 255.899 245.015C256.836 245.953 257.363 247.225 257.363 248.551C257.363 249.877 256.836 251.149 255.899 252.086C254.961 253.024 253.689 253.551 252.363 253.551Z" fill="#CCCCCC"/>
<path id="Vector_14" d="M252.363 286.551H53.3633C52.0372 286.551 50.7654 286.024 49.8277 285.086C48.89 284.149 48.3633 282.877 48.3633 281.551C48.3633 280.225 48.89 278.953 49.8277 278.015C50.7654 277.078 52.0372 276.551 53.3633 276.551H252.363C253.689 276.551 254.961 277.078 255.899 278.015C256.836 278.953 257.363 280.225 257.363 281.551C257.363 282.877 256.836 284.149 255.899 285.086C254.961 286.024 253.689 286.551 252.363 286.551Z" fill="#CCCCCC"/>
<path id="Vector_15" d="M252.363 319.551H53.3633C52.0372 319.551 50.7654 319.024 49.8277 318.086C48.89 317.149 48.3633 315.877 48.3633 314.551C48.3633 313.225 48.89 311.953 49.8277 311.015C50.7654 310.078 52.0372 309.551 53.3633 309.551H252.363C253.689 309.551 254.961 310.078 255.899 311.015C256.836 311.953 257.363 313.225 257.363 314.551C257.363 315.877 256.836 317.149 255.899 318.086C254.961 319.024 253.689 319.551 252.363 319.551Z" fill="#CCCCCC"/>
<path id="Vector_16" d="M32.9476 183.077L28.841 181.732C14.1834 176.791 4.55392 173.635 1.12397 165.903C0.457953 164.47 0.0807057 162.92 0.0137408 161.342C-0.053224 159.763 0.191399 158.186 0.733681 156.702C1.27596 155.218 2.10526 153.855 3.17423 152.692C4.2432 151.528 5.53093 150.586 6.96384 149.92C7.06938 149.871 7.17559 149.824 7.28248 149.778C9.02274 149.017 10.9078 148.644 12.8067 148.684C14.7056 148.725 16.573 149.178 18.2791 150.013C18.8051 148.188 19.722 146.499 20.9663 145.064C22.2105 143.629 23.7522 142.482 25.4842 141.703C28.3862 140.375 31.6967 140.255 34.6875 141.368C37.6782 142.481 40.1042 144.737 41.4317 147.639C41.4801 147.745 41.527 147.851 41.5723 147.959C45.0023 155.69 40.8797 164.947 34.7068 179.13L32.9476 183.077Z" fill="#FF6584"/>
<path id="Vector_17" d="M240.931 27.6862L238.254 26.8096C228.698 23.5879 222.42 21.5304 220.184 16.4901C219.75 15.5559 219.504 14.5454 219.46 13.5162C219.417 12.487 219.576 11.4592 219.93 10.4917C220.283 9.5241 220.824 8.63562 221.521 7.87699C222.217 7.11835 223.057 6.50441 223.991 6.07021C224.06 6.03821 224.129 6.00724 224.199 5.9773C225.333 5.48119 226.562 5.23794 227.8 5.26445C229.038 5.29096 230.256 5.58661 231.368 6.13083C231.711 4.94101 232.309 3.84008 233.12 2.90448C233.931 1.96889 234.936 1.22106 236.065 0.71291C237.002 0.284381 238.014 0.0445497 239.043 0.00713023C240.073 -0.0302892 241.1 0.13543 242.065 0.494816C243.03 0.854203 243.916 1.40022 244.67 2.1017C245.424 2.80318 246.033 3.64639 246.462 4.58316C246.493 4.65213 246.524 4.72156 246.553 4.79143C248.79 9.8318 246.102 15.8667 242.078 25.113L240.931 27.6862Z" fill="#FF6584"/>
<path id="Vector_18" d="M323.363 106.551H246.363C243.977 106.548 241.69 105.599 240.002 103.912C238.315 102.225 237.366 99.937 237.363 97.5509V48.5509C237.366 46.1648 238.315 43.8772 240.002 42.19C241.69 40.5027 243.977 39.5536 246.363 39.5509H323.363C325.749 39.5536 328.037 40.5027 329.724 42.19C331.411 43.8772 332.361 46.1648 332.363 48.5509V97.5509C332.361 99.937 331.411 102.225 329.724 103.912C328.037 105.599 325.749 106.548 323.363 106.551ZM246.363 41.5509C244.507 41.553 242.728 42.2912 241.416 43.6035C240.104 44.9158 239.365 46.695 239.363 48.5509V97.5509C239.365 99.4068 240.104 101.186 241.416 102.498C242.728 103.811 244.507 104.549 246.363 104.551H323.363C325.219 104.549 326.998 103.811 328.311 102.498C329.623 101.186 330.361 99.4068 330.363 97.5509V48.5509C330.361 46.695 329.623 44.9158 328.311 43.6035C326.998 42.2912 325.219 41.553 323.363 41.5509H246.363Z" fill="#3F3D56"/>
<path id="Vector_19" d="M284.451 72.608C282.393 72.6119 280.384 71.9835 278.695 70.8078L240.058 43.7946L241.204 42.1559L279.841 69.1691C281.177 70.0952 282.761 70.5973 284.386 70.61C286.012 70.6228 287.604 70.1455 288.954 69.2404L328.728 42.3497L329.848 44.007L290.074 70.8976C288.412 72.0159 286.454 72.6116 284.451 72.608Z" fill="#3F3D56"/>
<path id="Vector_20" d="M284.363 84.5509C290.991 84.5509 296.363 79.1783 296.363 72.5509C296.363 65.9235 290.991 60.5509 284.363 60.5509C277.736 60.5509 272.363 65.9235 272.363 72.5509C272.363 79.1783 277.736 84.5509 284.363 84.5509Z" fill="#3F3D56"/>
<path id="Vector_21" d="M575.484 112.689L573.35 111.991C565.733 109.423 560.73 107.783 558.947 103.765C558.248 102.261 558.175 100.542 558.745 98.984C559.314 97.4264 560.478 96.1587 561.982 95.4597C562.037 95.4342 562.092 95.4096 562.148 95.3857C563.052 94.9902 564.031 94.7963 565.018 94.8175C566.005 94.8386 566.975 95.0742 567.862 95.508C568.135 94.5596 568.612 93.6821 569.258 92.9364C569.905 92.1906 570.706 91.5946 571.606 91.1895C572.353 90.8479 573.159 90.6568 573.98 90.6269C574.8 90.5971 575.619 90.7292 576.388 91.0157C577.158 91.3021 577.863 91.7373 578.465 92.2965C579.066 92.8556 579.551 93.5277 579.893 94.2744C579.918 94.3294 579.942 94.3847 579.966 94.4404C581.748 98.458 579.606 103.268 576.398 110.638L575.484 112.689Z" fill="#FF6584"/>
<path id="Vector_22" d="M641.19 175.551H579.815C577.913 175.549 576.089 174.792 574.744 173.447C573.4 172.102 572.643 170.279 572.641 168.377V129.32C572.643 127.418 573.4 125.595 574.744 124.25C576.089 122.905 577.913 122.149 579.815 122.146H641.19C643.092 122.149 644.915 122.905 646.26 124.25C647.605 125.595 648.361 127.418 648.363 129.32V168.377C648.361 170.279 647.605 172.102 646.26 173.447C644.915 174.792 643.092 175.549 641.19 175.551ZM579.815 123.741C578.335 123.742 576.917 124.331 575.871 125.377C574.825 126.423 574.237 127.841 574.235 129.32V168.377C574.237 169.856 574.825 171.275 575.871 172.321C576.917 173.367 578.335 173.955 579.815 173.957H641.19C642.669 173.955 644.087 173.367 645.133 172.321C646.179 171.275 646.768 169.856 646.769 168.377V129.32C646.768 127.841 646.179 126.423 645.133 125.377C644.087 124.331 642.669 123.742 641.19 123.741H579.815Z" fill="#3F3D56"/>
<path id="Vector_23" d="M610.173 148.496C608.533 148.499 606.931 147.998 605.585 147.061L574.789 125.529L575.702 124.223L606.499 145.755C607.564 146.493 608.826 146.893 610.122 146.903C611.417 146.913 612.686 146.533 613.762 145.811L645.466 124.377L646.359 125.698L614.655 147.132C613.331 148.024 611.77 148.499 610.173 148.496Z" fill="#3F3D56"/>
<path id="Vector_24" d="M610.104 158.015C615.386 158.015 619.669 153.733 619.669 148.45C619.669 143.168 615.386 138.885 610.104 138.885C604.821 138.885 600.539 143.168 600.539 148.45C600.539 153.733 604.821 158.015 610.104 158.015Z" fill="#3F3D56"/>
<g id="undraw_video_files_fu10 1" clip-path="url(#clip1)">
<g id="Group 1">
<path id="Vector_25" d="M292.59 392.628C292.598 394.309 291.967 395.925 290.836 397.12C289.704 398.315 288.164 398.991 286.555 399H21.035C20.2383 398.996 19.4503 398.827 18.7159 398.505C17.9814 398.182 17.315 397.712 16.7546 397.12C16.1942 396.529 15.7508 395.827 15.4498 395.057C15.1487 394.286 14.9959 393.461 15.0001 392.629V203.13C14.9917 201.448 15.6227 199.833 16.7545 198.638C17.8862 197.443 19.4259 196.767 21.0348 196.758H286.555C287.352 196.762 288.14 196.931 288.874 197.253C289.609 197.576 290.275 198.046 290.835 198.638C291.396 199.229 291.839 199.931 292.14 200.701C292.441 201.472 292.594 202.297 292.59 203.129V203.13V392.628Z" fill="#E6E6E6"/>
<path id="Vector_26" d="M289.458 389.525C289.458 391.159 288.836 392.726 287.731 393.882C286.625 395.037 285.125 395.686 283.561 395.686H24.2105C22.6466 395.686 21.1468 395.037 20.041 393.882C18.9352 392.726 18.314 391.159 18.314 389.525V206.319C18.314 204.685 18.9352 203.118 20.041 201.963C21.1468 200.808 22.6466 200.159 24.2105 200.159H283.573C285.135 200.162 286.632 200.812 287.735 201.967C288.838 203.122 289.458 204.688 289.458 206.319V389.525Z" fill="white"/>
<path id="c6fe725a-3b03-4a96-90af-cfbd2676500a" d="M32.1752 208.113H275.873C276.801 208.113 277.692 208.498 278.348 209.184C279.004 209.87 279.373 210.8 279.373 211.77V383.364C279.373 384.334 279.004 385.264 278.348 385.95C277.692 386.636 276.801 387.021 275.873 387.021H32.1752C31.247 387.021 30.3568 386.636 29.7004 385.95C29.044 385.264 28.6753 384.334 28.6753 383.364V211.77C28.6753 210.8 29.044 209.87 29.7004 209.184C30.3568 208.498 31.247 208.113 32.1752 208.113Z" fill="#E6E6E6"/>
<path id="Vector_27" d="M35.2602 212.228H272.524C272.983 212.228 273.438 212.323 273.863 212.507C274.288 212.69 274.674 212.96 274.999 213.299C275.324 213.639 275.581 214.042 275.757 214.486C275.933 214.929 276.024 215.405 276.024 215.885V378.323C276.024 378.804 275.933 379.279 275.757 379.723C275.581 380.167 275.324 380.57 274.999 380.909C274.674 381.249 274.288 381.518 273.863 381.702C273.438 381.886 272.983 381.98 272.524 381.98H35.2602C34.3319 381.98 33.4417 381.595 32.7854 380.909C32.129 380.223 31.7603 379.293 31.7603 378.323V215.885C31.7603 214.915 32.129 213.985 32.7854 213.299C33.4417 212.614 34.3319 212.228 35.2602 212.228Z" fill="white"/>
<path id="Vector_28" d="M202.784 325.071C201.85 325.07 200.927 324.865 200.074 324.468C199.876 324.376 199.686 324.263 199.509 324.132L182.266 311.45C181.391 310.807 180.678 309.954 180.185 308.962C179.692 307.97 179.435 306.869 179.435 305.752V288.457C179.435 287.339 179.692 286.238 180.185 285.247C180.678 284.255 181.391 283.401 182.266 282.758L199.509 270.076C199.686 269.945 199.876 269.833 200.074 269.741C201.09 269.269 202.202 269.07 203.31 269.161C204.418 269.253 205.487 269.632 206.419 270.265C207.351 270.898 208.117 271.764 208.648 272.785C209.178 273.806 209.456 274.949 209.456 276.11V318.098C209.456 319.947 208.753 321.72 207.502 323.027C206.25 324.334 204.554 325.069 202.784 325.069L202.784 325.071Z" fill="black"/>
<path id="Vector_29" d="M164.194 328.471H116.101C106.29 328.463 98.3382 321.836 98.3281 313.659V280.549C98.3382 272.372 106.29 265.746 116.101 265.737H164.319C174.061 265.747 181.956 272.326 181.967 280.445V313.659C181.957 321.836 174.006 328.463 164.194 328.471Z" fill="black"/>
<path id="Vector_30" d="M249.863 371.535C257.762 371.535 264.166 364.844 264.166 356.59C264.166 348.337 257.762 341.646 249.863 341.646C241.963 341.646 235.56 348.337 235.56 356.59C235.56 364.844 241.963 371.535 249.863 371.535Z" fill="#3F3D56"/>
<path id="Vector_31" d="M257.292 356.323L245.891 349.445C245.846 349.418 245.795 349.404 245.743 349.404C245.691 349.404 245.64 349.418 245.595 349.445C245.55 349.472 245.512 349.511 245.486 349.558C245.46 349.605 245.447 349.659 245.447 349.713V363.468C245.447 363.522 245.46 363.576 245.486 363.623C245.512 363.67 245.55 363.709 245.595 363.736C245.64 363.763 245.691 363.777 245.743 363.777C245.795 363.777 245.846 363.763 245.891 363.736L257.292 356.858C257.337 356.831 257.374 356.792 257.4 356.745C257.426 356.698 257.44 356.645 257.44 356.59C257.44 356.536 257.426 356.483 257.4 356.436C257.374 356.389 257.337 356.35 257.292 356.323L245.891 349.445C245.846 349.418 245.795 349.404 245.743 349.404C245.691 349.404 245.64 349.418 245.595 349.445C245.55 349.472 245.512 349.511 245.486 349.558C245.46 349.605 245.447 349.659 245.447 349.713V363.468C245.447 363.522 245.46 363.576 245.486 363.623C245.512 363.67 245.55 363.709 245.595 363.736C245.64 363.763 245.691 363.777 245.743 363.777C245.795 363.777 245.846 363.763 245.891 363.736L257.292 356.858C257.337 356.831 257.374 356.792 257.4 356.745C257.426 356.698 257.44 356.645 257.44 356.59C257.44 356.536 257.426 356.483 257.4 356.436C257.374 356.389 257.337 356.35 257.292 356.323Z" fill="white"/>
</g>
</g>
</g>
<defs>
<clipPath id="clip0">
<rect width="648.363" height="565.551" fill="white"/>
</clipPath>
<clipPath id="clip1">
<rect width="399" height="251" fill="white" transform="translate(15 148)"/>
</clipPath>
</defs>
</svg>
