<svg width="1440" height="1024" viewBox="0 0 1440 1024" fill="none" xmlns="http://www.w3.org/2000/svg">
<g clip-path="url(#clip0)">
<path d="M319.436 881.982L1178.52 995.496L1706.23 1683.88L1593.41 2543.89L906.171 3071.74L47.0739 2958.23L-480.628 2269.84L-367.816 1409.84L319.436 881.982Z" fill="url(#paint0_linear)"/>
<path d="M612.809 843.36L1413.25 1175.36L1744.8 1976.86L1413.25 2778.37L612.801 3110.36L-187.644 2778.37L-519.199 1976.86L-187.644 1175.36L612.809 843.36Z" fill="url(#paint1_linear)"/>
<g clip-path="url(#clip1)">
<path d="M1168.2 995.56H1153.44C1151.71 995.558 1150.06 994.873 1148.84 993.654C1147.62 992.436 1146.94 990.783 1146.94 989.06V866.046C1146.94 864.323 1147.62 862.671 1148.84 861.452C1150.06 860.233 1151.71 859.548 1153.44 859.546H1168.2C1169.92 859.548 1171.57 860.233 1172.79 861.452C1174.01 862.671 1174.69 864.323 1174.7 866.046V989.06C1174.69 990.783 1174.01 992.436 1172.79 993.654C1171.57 994.873 1169.92 995.558 1168.2 995.56V995.56Z" fill="#0F0F0F"/>
<path d="M1139 995.56H1124.24C1122.52 995.558 1120.87 994.873 1119.65 993.654C1118.43 992.436 1117.75 990.783 1117.74 989.06V866.046C1117.75 864.323 1118.43 862.671 1119.65 861.452C1120.87 860.233 1122.52 859.548 1124.24 859.546H1139C1140.73 859.548 1142.38 860.233 1143.6 861.452C1144.82 862.671 1145.5 864.323 1145.5 866.046V989.06C1145.5 990.783 1144.82 992.436 1143.6 993.654C1142.38 994.873 1140.73 995.558 1139 995.56Z" fill="#0F0F0F"/>
<path d="M1100.08 875.583C1100.08 875.583 1094.5 925.727 1150.8 924.024C1207.09 922.321 1185.19 873.049 1185.19 873.049C1185.19 873.049 1173.43 863.804 1143.69 872.746C1113.95 881.687 1100.08 875.583 1100.08 875.583Z" fill="#CCCCCC"/>
<path d="M1124.27 789.746C1121.55 789.748 1118.89 788.947 1116.63 787.445L1020.2 723.625C1018.77 722.672 1017.77 721.188 1017.42 719.5C1017.08 717.811 1017.42 716.055 1018.37 714.617L1026.52 702.309C1026.99 701.597 1027.59 700.985 1028.3 700.508C1029.01 700.031 1029.8 699.697 1030.64 699.527C1031.48 699.357 1032.34 699.353 1033.18 699.516C1034.01 699.679 1034.81 700.005 1035.52 700.476L1131.95 764.296C1134.44 765.943 1136.33 768.348 1137.35 771.155C1138.36 773.963 1138.44 777.022 1137.58 779.879C1136.72 782.737 1134.96 785.24 1132.56 787.017C1130.16 788.795 1127.25 789.752 1124.27 789.746V789.746Z" fill="#0F0F0F"/>
<path d="M1141.78 731.167C1169.94 731.167 1192.78 708.334 1192.78 680.167C1192.78 652.001 1169.94 629.167 1141.78 629.167C1113.61 629.167 1090.78 652.001 1090.78 680.167C1090.78 708.334 1113.61 731.167 1141.78 731.167Z" fill="#0F0F0F"/>
<path d="M1147.74 701.576C1144.43 701.484 1140.32 701.37 1137.15 699.054C1136.21 698.337 1135.43 697.421 1134.88 696.372C1134.33 695.323 1134.01 694.166 1133.95 692.982C1133.89 692.14 1134.03 691.296 1134.35 690.517C1134.68 689.737 1135.18 689.043 1135.81 688.488C1137.47 687.089 1139.88 686.761 1142.49 687.527L1139.79 667.801L1141.77 667.53L1144.94 690.72L1143.29 689.961C1141.37 689.081 1138.74 688.633 1137.1 690.016C1136.7 690.377 1136.39 690.827 1136.19 691.329C1135.99 691.831 1135.91 692.372 1135.95 692.911C1136 693.793 1136.24 694.653 1136.65 695.435C1137.06 696.216 1137.63 696.9 1138.33 697.439C1140.8 699.241 1144.08 699.473 1147.8 699.577L1147.74 701.576Z" fill="#2F2E41"/>
<path d="M1129.99 669.503H1119.22V671.503H1129.99V669.503Z" fill="#2F2E41"/>
<path d="M1163.99 669.503H1153.22V671.503H1163.99V669.503Z" fill="#2F2E41"/>
<path d="M1193.29 886.148C1193.29 886.148 1197.7 736.433 1136.05 746.708C1074.4 756.982 1100.09 901.56 1100.09 901.56C1100.09 901.56 1113.3 927.98 1145.59 898.624C1177.88 869.268 1193.29 886.148 1193.29 886.148Z" fill="#2F2E41"/>
<path d="M1032.07 866.405C1030.81 866.406 1029.58 866.044 1028.53 865.363C1027.47 864.682 1026.64 863.71 1026.13 862.566L1020.08 849.099C1019.73 848.32 1019.54 847.48 1019.52 846.627C1019.49 845.774 1019.64 844.924 1019.94 844.126C1020.24 843.329 1020.7 842.599 1021.29 841.978C1021.87 841.357 1022.58 840.858 1023.35 840.508L1128.86 793.179C1130.52 792.433 1132.32 792.022 1134.14 791.969C1135.96 791.916 1137.77 792.222 1139.48 792.871C1141.18 793.519 1142.74 794.497 1144.07 795.748C1145.39 796.999 1146.46 798.498 1147.2 800.161C1147.95 801.824 1148.36 803.618 1148.41 805.44C1148.47 807.262 1148.16 809.076 1147.51 810.78C1146.86 812.483 1145.89 814.042 1144.63 815.368C1143.38 816.694 1141.88 817.76 1140.22 818.506L1034.72 865.836C1033.88 866.211 1032.98 866.405 1032.07 866.405V866.405Z" fill="#0F0F0F"/>
<path d="M1170.54 637.091C1160.62 630.353 1148.1 634.93 1138.45 639.739C1129.09 644.408 1118.54 650.35 1107.94 645.852C1103.8 644.095 1100.44 640.659 1099.86 636.062C1099.16 630.585 1102.47 625.458 1106.15 621.735C1110.16 617.904 1114.82 614.831 1119.92 612.663C1124.92 610.414 1130.18 608.813 1135.59 607.899C1146.29 606.049 1157.28 606.784 1167.65 610.042C1178.01 613.3 1187.45 618.987 1195.17 626.63C1202.64 634.248 1208.41 643.362 1212.1 653.371C1215.79 663.38 1217.33 674.058 1216.59 684.702C1215.75 696.047 1212.13 707.616 1204.86 716.522C1198.04 724.878 1187.83 730.753 1176.93 731.243C1174.25 731.368 1171.58 731.151 1168.96 730.596C1167.08 730.195 1166.28 733.086 1168.17 733.489C1179.52 735.91 1191.28 732.313 1200.28 725.231C1209.76 717.775 1215.58 706.488 1218.13 694.859C1223.01 672.604 1216.89 648.654 1202.88 630.837C1195.97 621.962 1187.01 614.892 1176.77 610.228C1166.19 605.506 1154.64 603.386 1143.08 604.045C1131.54 604.624 1120.36 608.169 1110.6 614.337C1101.87 619.979 1092.03 631.94 1099.15 642.522C1101.81 646.479 1106.23 648.89 1110.82 649.88C1116.08 650.905 1121.53 650.43 1126.54 648.511C1137.95 644.483 1148.5 635.483 1161.27 636.847C1164.05 637.136 1166.72 638.109 1169.03 639.681C1170.63 640.769 1172.13 638.17 1170.54 637.091L1170.54 637.091Z" fill="#2F2E41"/>
<path d="M996.408 820.272C995.828 820.271 995.255 820.14 994.732 819.889C994.209 819.639 993.748 819.274 993.384 818.823L976.799 798.551H734.363C731.977 798.548 729.69 797.599 728.002 795.912C726.315 794.225 725.366 791.937 725.363 789.551V645.551C725.366 643.165 726.315 640.877 728.002 639.19C729.69 637.503 731.977 636.554 734.363 636.551H991.363C993.749 636.554 996.037 637.503 997.724 639.19C999.411 640.877 1000.36 643.165 1000.36 645.551V816.331C1000.37 817.144 1000.12 817.939 999.653 818.603C999.184 819.267 998.52 819.769 997.752 820.036C997.321 820.191 996.866 820.271 996.408 820.272V820.272ZM734.363 638.551C732.507 638.553 730.728 639.291 729.416 640.603C728.104 641.916 727.365 643.695 727.363 645.551V789.551C727.365 791.407 728.104 793.186 729.416 794.498C730.728 795.811 732.507 796.549 734.363 796.551H977.746L994.932 817.556C995.185 817.865 995.527 818.088 995.911 818.195C996.296 818.302 996.704 818.287 997.079 818.153C997.455 818.019 997.78 817.772 998.01 817.445C998.24 817.119 998.363 816.73 998.363 816.331V645.551C998.361 643.695 997.623 641.916 996.311 640.603C994.998 639.291 993.219 638.553 991.363 638.551H734.363Z" fill="#3F3D56"/>
<path d="M962.363 684.551H763.363C762.037 684.551 760.765 684.024 759.828 683.086C758.89 682.149 758.363 680.877 758.363 679.551C758.363 678.225 758.89 676.953 759.828 676.015C760.765 675.078 762.037 674.551 763.363 674.551H962.363C963.689 674.551 964.961 675.078 965.899 676.015C966.836 676.953 967.363 678.225 967.363 679.551C967.363 680.877 966.836 682.149 965.899 683.086C964.961 684.024 963.689 684.551 962.363 684.551Z" fill="#CCCCCC"/>
<path d="M962.363 717.551H763.363C762.037 717.551 760.765 717.024 759.828 716.086C758.89 715.149 758.363 713.877 758.363 712.551C758.363 711.225 758.89 709.953 759.828 709.015C760.765 708.078 762.037 707.551 763.363 707.551H962.363C963.689 707.551 964.961 708.078 965.899 709.015C966.836 709.953 967.363 711.225 967.363 712.551C967.363 713.877 966.836 715.149 965.899 716.086C964.961 717.024 963.689 717.551 962.363 717.551Z" fill="#CCCCCC"/>
<path d="M962.363 750.551H763.363C762.037 750.551 760.765 750.024 759.828 749.086C758.89 748.149 758.363 746.877 758.363 745.551C758.363 744.225 758.89 742.953 759.828 742.015C760.765 741.078 762.037 740.551 763.363 740.551H962.363C963.689 740.551 964.961 741.078 965.899 742.015C966.836 742.953 967.363 744.225 967.363 745.551C967.363 746.877 966.836 748.149 965.899 749.086C964.961 750.024 963.689 750.551 962.363 750.551V750.551Z" fill="#CCCCCC"/>
<path d="M742.948 614.077L738.841 612.732C724.183 607.791 714.554 604.635 711.124 596.903C710.458 595.47 710.081 593.92 710.014 592.342C709.947 590.763 710.191 589.186 710.734 587.702C711.276 586.218 712.105 584.855 713.174 583.692C714.243 582.528 715.531 581.586 716.964 580.92C717.069 580.871 717.176 580.824 717.282 580.778C719.023 580.017 720.908 579.644 722.807 579.684C724.706 579.725 726.573 580.178 728.279 581.013C728.805 579.188 729.722 577.499 730.966 576.064C732.21 574.629 733.752 573.482 735.484 572.703C738.386 571.375 741.697 571.255 744.687 572.368C747.678 573.481 750.104 575.737 751.432 578.639C751.48 578.745 751.527 578.851 751.572 578.959C755.002 586.69 750.88 595.947 744.707 610.13L742.948 614.077Z" fill="#FF6584"/>
<path d="M950.931 458.686L948.254 457.81C938.698 454.588 932.42 452.53 930.184 447.49C929.75 446.556 929.504 445.545 929.46 444.516C929.417 443.487 929.576 442.459 929.93 441.492C930.283 440.524 930.824 439.636 931.521 438.877C932.217 438.118 933.057 437.504 933.991 437.07C934.06 437.038 934.129 437.007 934.199 436.977C935.333 436.481 936.562 436.238 937.8 436.264C939.038 436.291 940.256 436.587 941.368 437.131C941.711 435.941 942.309 434.84 943.12 433.904C943.931 432.969 944.936 432.221 946.065 431.713C947.002 431.284 948.014 431.044 949.043 431.007C950.073 430.97 951.1 431.135 952.065 431.495C953.03 431.854 953.916 432.4 954.67 433.102C955.424 433.803 956.033 434.646 956.462 435.583C956.493 435.652 956.524 435.721 956.553 435.791C958.79 440.832 956.102 446.867 952.078 456.113L950.931 458.686Z" fill="#FF6584"/>
<path d="M1033.36 537.551H956.363C953.977 537.548 951.69 536.599 950.002 534.912C948.315 533.225 947.366 530.937 947.363 528.551V479.551C947.366 477.165 948.315 474.877 950.002 473.19C951.69 471.503 953.977 470.554 956.363 470.551H1033.36C1035.75 470.554 1038.04 471.503 1039.72 473.19C1041.41 474.877 1042.36 477.165 1042.36 479.551V528.551C1042.36 530.937 1041.41 533.225 1039.72 534.912C1038.04 536.599 1035.75 537.548 1033.36 537.551V537.551ZM956.363 472.551C954.507 472.553 952.728 473.291 951.416 474.603C950.104 475.916 949.365 477.695 949.363 479.551V528.551C949.365 530.407 950.104 532.186 951.416 533.498C952.728 534.811 954.507 535.549 956.363 535.551H1033.36C1035.22 535.549 1037 534.811 1038.31 533.498C1039.62 532.186 1040.36 530.407 1040.36 528.551V479.551C1040.36 477.695 1039.62 475.916 1038.31 474.603C1037 473.291 1035.22 472.553 1033.36 472.551H956.363Z" fill="#3F3D56"/>
<path d="M994.451 503.608C992.393 503.612 990.384 502.983 988.695 501.808L950.058 474.795L951.204 473.156L989.841 500.169C991.177 501.095 992.761 501.597 994.386 501.61C996.012 501.623 997.604 501.145 998.954 500.24L1038.73 473.35L1039.85 475.007L1000.07 501.898C998.412 503.016 996.454 503.612 994.451 503.608Z" fill="#3F3D56"/>
<path d="M994.363 515.551C1000.99 515.551 1006.36 510.178 1006.36 503.551C1006.36 496.923 1000.99 491.551 994.363 491.551C987.736 491.551 982.363 496.923 982.363 503.551C982.363 510.178 987.736 515.551 994.363 515.551Z" fill="#3F3D56"/>
<path d="M1285.48 543.689L1283.35 542.991C1275.73 540.423 1270.73 538.783 1268.95 534.765C1268.25 533.261 1268.18 531.542 1268.74 529.984C1269.31 528.426 1270.48 527.159 1271.98 526.46C1272.04 526.434 1272.09 526.41 1272.15 526.386C1273.05 525.99 1274.03 525.796 1275.02 525.817C1276 525.839 1276.98 526.074 1277.86 526.508C1278.14 525.56 1278.61 524.682 1279.26 523.936C1279.9 523.191 1280.71 522.595 1281.61 522.19C1282.35 521.848 1283.16 521.657 1283.98 521.627C1284.8 521.597 1285.62 521.729 1286.39 522.016C1287.16 522.302 1287.86 522.737 1288.46 523.296C1289.07 523.856 1289.55 524.528 1289.89 525.274C1289.92 525.329 1289.94 525.385 1289.97 525.44C1291.75 529.458 1289.61 534.268 1286.4 541.638L1285.48 543.689Z" fill="#FF6584"/>
<path d="M1351.19 606.551H1289.81C1287.91 606.549 1286.09 605.792 1284.74 604.447C1283.4 603.102 1282.64 601.279 1282.64 599.377V560.32C1282.64 558.418 1283.4 556.595 1284.74 555.25C1286.09 553.905 1287.91 553.149 1289.81 553.147H1351.19C1353.09 553.149 1354.91 553.905 1356.26 555.25C1357.6 556.595 1358.36 558.418 1358.36 560.32V599.377C1358.36 601.279 1357.6 603.102 1356.26 604.447C1354.91 605.792 1353.09 606.549 1351.19 606.551V606.551ZM1289.81 554.741C1288.34 554.742 1286.92 555.331 1285.87 556.377C1284.82 557.423 1284.24 558.841 1284.23 560.32V599.377C1284.24 600.856 1284.82 602.275 1285.87 603.321C1286.92 604.367 1288.34 604.955 1289.81 604.957H1351.19C1352.67 604.955 1354.09 604.367 1355.13 603.321C1356.18 602.275 1356.77 600.856 1356.77 599.377V560.32C1356.77 558.841 1356.18 557.423 1355.13 556.377C1354.09 555.331 1352.67 554.742 1351.19 554.741H1289.81Z" fill="#3F3D56"/>
<path d="M1320.17 579.496C1318.53 579.499 1316.93 578.998 1315.59 578.061L1284.79 556.529L1285.7 555.223L1316.5 576.755C1317.56 577.493 1318.83 577.893 1320.12 577.903C1321.42 577.913 1322.69 577.533 1323.76 576.811L1355.47 555.377L1356.36 556.698L1324.66 578.132C1323.33 579.024 1321.77 579.499 1320.17 579.496Z" fill="#3F3D56"/>
<path d="M1320.1 589.015C1325.39 589.015 1329.67 584.733 1329.67 579.45C1329.67 574.168 1325.39 569.885 1320.1 569.885C1314.82 569.885 1310.54 574.168 1310.54 579.45C1310.54 584.733 1314.82 589.015 1320.1 589.015Z" fill="#3F3D56"/>
<g clip-path="url(#clip2)">
<path d="M1002.59 823.628C1002.6 825.309 1001.97 826.925 1000.84 828.12C999.704 829.315 998.164 829.991 996.555 830H731.035C730.238 829.996 729.45 829.827 728.716 829.505C727.981 829.182 727.315 828.712 726.755 828.12C726.194 827.529 725.751 826.827 725.45 826.057C725.149 825.286 724.996 824.461 725 823.629V634.13C724.992 632.448 725.623 630.833 726.754 629.638C727.886 628.443 729.426 627.767 731.035 627.758H996.555C997.352 627.762 998.14 627.931 998.874 628.253C999.609 628.576 1000.28 629.046 1000.84 629.638C1001.4 630.229 1001.84 630.931 1002.14 631.701C1002.44 632.472 1002.59 633.297 1002.59 634.129V634.13V823.628Z" fill="#E6E6E6"/>
<path d="M999.458 820.525C999.458 822.159 998.836 823.726 997.731 824.882C996.625 826.037 995.125 826.686 993.561 826.686H734.21C732.647 826.686 731.147 826.037 730.041 824.882C728.935 823.726 728.314 822.159 728.314 820.525V637.319C728.314 635.685 728.935 634.118 730.041 632.963C731.147 631.808 732.647 631.159 734.21 631.159H993.573C995.135 631.162 996.632 631.812 997.735 632.967C998.838 634.122 999.458 635.688 999.458 637.319V820.525Z" fill="white"/>
<path d="M742.175 639.113H985.873C986.801 639.113 987.692 639.498 988.348 640.184C989.004 640.87 989.373 641.8 989.373 642.77V814.364C989.373 815.334 989.004 816.264 988.348 816.95C987.692 817.636 986.801 818.021 985.873 818.021H742.175C741.247 818.021 740.357 817.636 739.7 816.95C739.044 816.264 738.675 815.334 738.675 814.364V642.77C738.675 641.8 739.044 640.87 739.7 640.184C740.357 639.498 741.247 639.113 742.175 639.113V639.113Z" fill="#E6E6E6"/>
<path d="M745.26 643.228H982.524C982.983 643.228 983.438 643.323 983.863 643.507C984.288 643.69 984.674 643.96 984.999 644.299C985.324 644.639 985.581 645.042 985.757 645.486C985.933 645.929 986.024 646.405 986.024 646.885V809.323C986.024 809.804 985.933 810.279 985.757 810.723C985.581 811.166 985.324 811.57 984.999 811.909C984.674 812.249 984.288 812.518 983.863 812.702C983.438 812.886 982.983 812.98 982.524 812.98H745.26C744.332 812.98 743.442 812.595 742.785 811.909C742.129 811.223 741.76 810.293 741.76 809.323V646.885C741.76 645.915 742.129 644.985 742.785 644.299C743.442 643.614 744.332 643.228 745.26 643.228V643.228Z" fill="white"/>
<path d="M912.784 756.071C911.85 756.07 910.927 755.865 910.074 755.468C909.876 755.376 909.686 755.263 909.509 755.132L892.266 742.45C891.391 741.807 890.678 740.954 890.185 739.962C889.692 738.97 889.435 737.869 889.435 736.752V719.457C889.435 718.339 889.692 717.238 890.185 716.247C890.678 715.255 891.391 714.401 892.266 713.758L909.509 701.076C909.686 700.945 909.876 700.833 910.074 700.741C911.09 700.269 912.202 700.07 913.31 700.161C914.418 700.253 915.487 700.632 916.419 701.265C917.351 701.898 918.117 702.764 918.648 703.785C919.178 704.806 919.456 705.949 919.456 707.11V749.098C919.456 750.947 918.753 752.72 917.502 754.027C916.25 755.334 914.554 756.069 912.784 756.069L912.784 756.071Z" fill="black"/>
<path d="M874.194 759.471H826.101C816.29 759.463 808.338 752.836 808.328 744.659V711.549C808.338 703.372 816.29 696.746 826.101 696.737H874.319C884.061 696.747 891.956 703.326 891.967 711.445V744.659C891.957 752.836 884.006 759.463 874.194 759.471Z" fill="black"/>
<path d="M959.863 802.535C967.762 802.535 974.166 795.844 974.166 787.59C974.166 779.337 967.762 772.646 959.863 772.646C951.963 772.646 945.56 779.337 945.56 787.59C945.56 795.844 951.963 802.535 959.863 802.535Z" fill="#3F3D56"/>
<path d="M967.292 787.323L955.891 780.445C955.846 780.418 955.795 780.404 955.743 780.404C955.691 780.404 955.64 780.418 955.595 780.445C955.55 780.472 955.512 780.511 955.486 780.558C955.46 780.605 955.447 780.659 955.447 780.713V794.468C955.447 794.522 955.46 794.576 955.486 794.623C955.512 794.67 955.55 794.709 955.595 794.736C955.64 794.763 955.691 794.777 955.743 794.777C955.795 794.777 955.846 794.763 955.891 794.736L967.292 787.858C967.337 787.831 967.374 787.792 967.4 787.745C967.426 787.698 967.44 787.645 967.44 787.59C967.44 787.536 967.426 787.483 967.4 787.436C967.374 787.389 967.337 787.35 967.292 787.323L955.891 780.445C955.846 780.418 955.795 780.404 955.743 780.404C955.691 780.404 955.64 780.418 955.595 780.445C955.55 780.472 955.512 780.511 955.486 780.558C955.46 780.605 955.447 780.659 955.447 780.713V794.468C955.447 794.522 955.46 794.576 955.486 794.623C955.512 794.67 955.55 794.709 955.595 794.736C955.64 794.763 955.691 794.777 955.743 794.777C955.795 794.777 955.846 794.763 955.891 794.736L967.292 787.858C967.337 787.831 967.374 787.792 967.4 787.745C967.426 787.698 967.44 787.645 967.44 787.59C967.44 787.536 967.426 787.483 967.4 787.436C967.374 787.389 967.337 787.35 967.292 787.323V787.323Z" fill="white"/>
</g>
</g>
</g>
<defs>
<linearGradient id="paint0_linear" x1="319.428" y1="881.984" x2="906.171" y2="3071.74" gradientUnits="userSpaceOnUse">
<stop offset="0.0962181" stop-color="#535354"/>
<stop offset="0.9999" stop-color="#2C292F" stop-opacity="0.0864423"/>
<stop offset="1" stop-color="#535354" stop-opacity="0"/>
</linearGradient>
<linearGradient id="paint1_linear" x1="612.801" y1="843.36" x2="612.801" y2="3110.36" gradientUnits="userSpaceOnUse">
<stop offset="0.046875" stop-color="#0D0C10"/>
<stop offset="0.864583" stop-color="#312B36" stop-opacity="0.74"/>
</linearGradient>
<clipPath id="clip0">
<rect width="1440" height="1024" fill="white"/>
</clipPath>
<clipPath id="clip1">
<rect width="648.363" height="565.551" fill="white" transform="translate(710 431)"/>
</clipPath>
<clipPath id="clip2">
<rect width="399" height="251" fill="white" transform="translate(725 579)"/>
</clipPath>
</defs>
</svg>
